# xmcd
#
# Track frame offsets:
#	150
#	23452
#	48297
#	75199
#	102954
#	123595
#	151286
#	177674
#	206863
#	238267
#	262281
#
# Disc length: 3831 seconds
#
# Revision: 1
# Processed by: cddbd v1.5.2PL0 Copyright (c) Steve Scherf et al.
# Submitted via: audiograbber 1.83.01
#
DISCID=920ef50b
DTITLE=Seven - Seven
DYEAR=2014
DGENRE=
TTITLE0=Hypnotik
TTITLE1=Orbital
TTITLE2=Resistance feat Jodie
TTITLE3=Dust
TTITLE4=Lay you down feat Jodie
TTITLE5=Movie Scene
TTITLE6=Oasis
TTITLE7=Future flamenco
TTITLE8=Came to play VIP feat Alys Be
TTITLE9=From the sky
TTITLE10=Retrowave
EXTD=
EXTT0=
EXTT1=
EXTT2=
EXTT3=
EXTT4=
EXTT5=
EXTT6=
EXTT7=
EXTT8=
EXTT9=
EXTT10=
PLAYORDER=
